<svg width="74" height="21" viewBox="0 0 74 21" fill="none" xmlns="http://www.w3.org/2000/svg">
<path d="M0.82 0.999999H4.06C5.15333 0.999999 5.97333 1.29333 6.52 1.88C7.06667 2.46667 7.34 3.32667 7.34 4.46V5.84C7.34 6.97333 7.06667 7.83333 6.52 8.42C5.97333 9.00667 5.15333 9.3 4.06 9.3H3.02V15H0.82V0.999999ZM4.06 7.3C4.42 7.3 4.68667 7.2 4.86 7C5.04667 6.8 5.14 6.46 5.14 5.98V4.32C5.14 3.84 5.04667 3.5 4.86 3.3C4.68667 3.1 4.42 3 4.06 3H3.02V7.3H4.06ZM8.53484 0.999999H11.7948C12.9282 0.999999 13.7548 1.26667 14.2748 1.8C14.7948 2.32 15.0548 3.12667 15.0548 4.22V5.08C15.0548 6.53333 14.5748 7.45333 13.6148 7.84V7.88C14.1482 8.04 14.5215 8.36667 14.7348 8.86C14.9615 9.35333 15.0748 10.0133 15.0748 10.84V13.3C15.0748 13.7 15.0882 14.0267 15.1148 14.28C15.1415 14.52 15.2082 14.76 15.3148 15H13.0748C12.9948 14.7733 12.9415 14.56 12.9148 14.36C12.8882 14.16 12.8748 13.8 12.8748 13.28V10.72C12.8748 10.08 12.7682 9.63333 12.5548 9.38C12.3548 9.12667 12.0015 9 11.4948 9H10.7348V15H8.53484V0.999999ZM11.5348 7C11.9748 7 12.3015 6.88667 12.5148 6.66C12.7415 6.43333 12.8548 6.05333 12.8548 5.52V4.44C12.8548 3.93333 12.7615 3.56667 12.5748 3.34C12.4015 3.11333 12.1215 3 11.7348 3H10.7348V7H11.5348ZM19.7813 15.2C18.7013 15.2 17.8746 14.8933 17.3013 14.28C16.7279 13.6667 16.4412 12.8 16.4412 11.68V4.32C16.4412 3.2 16.7279 2.33333 17.3013 1.72C17.8746 1.10667 18.7013 0.799999 19.7813 0.799999C20.8613 0.799999 21.6879 1.10667 22.2613 1.72C22.8346 2.33333 23.1213 3.2 23.1213 4.32V11.68C23.1213 12.8 22.8346 13.6667 22.2613 14.28C21.6879 14.8933 20.8613 15.2 19.7813 15.2ZM19.7813 13.2C20.5413 13.2 20.9212 12.74 20.9212 11.82V4.18C20.9212 3.26 20.5413 2.8 19.7813 2.8C19.0213 2.8 18.6413 3.26 18.6413 4.18V11.82C18.6413 12.74 19.0213 13.2 19.7813 13.2ZM27.4691 15.2C26.4024 15.2 25.5957 14.9 25.0491 14.3C24.5024 13.6867 24.2291 12.8133 24.2291 11.68V10.88H26.3091V11.84C26.3091 12.7467 26.6891 13.2 27.4491 13.2C27.8224 13.2 28.1024 13.0933 28.2891 12.88C28.4891 12.6533 28.5891 12.2933 28.5891 11.8C28.5891 11.2133 28.4557 10.7 28.1891 10.26C27.9224 9.80667 27.4291 9.26667 26.7091 8.64C25.8024 7.84 25.1691 7.12 24.8091 6.48C24.4491 5.82667 24.2691 5.09333 24.2691 4.28C24.2691 3.17333 24.5491 2.32 25.1091 1.72C25.6691 1.10667 26.4824 0.799999 27.5491 0.799999C28.6024 0.799999 29.3957 1.10667 29.9291 1.72C30.4757 2.32 30.7491 3.18667 30.7491 4.32V4.9H28.6691V4.18C28.6691 3.7 28.5757 3.35333 28.3891 3.14C28.2024 2.91333 27.9291 2.8 27.5691 2.8C26.8357 2.8 26.4691 3.24667 26.4691 4.14C26.4691 4.64667 26.6024 5.12 26.8691 5.56C27.1491 6 27.6491 6.53333 28.3691 7.16C29.2891 7.96 29.9224 8.68667 30.2691 9.34C30.6157 9.99333 30.7891 10.76 30.7891 11.64C30.7891 12.7867 30.5024 13.6667 29.9291 14.28C29.3691 14.8933 28.5491 15.2 27.4691 15.2ZM33.7705 3H31.4705V0.999999H38.2705V3H35.9705V15H33.7705V3ZM39.3356 0.999999H41.5356V15H39.3356V0.999999ZM46.2833 15.2C45.2299 15.2 44.4233 14.9 43.8633 14.3C43.3166 13.7 43.0433 12.8533 43.0433 11.76V4.24C43.0433 3.14667 43.3166 2.3 43.8633 1.7C44.4233 1.1 45.2299 0.799999 46.2833 0.799999C47.3366 0.799999 48.1366 1.1 48.6833 1.7C49.2433 2.3 49.5233 3.14667 49.5233 4.24V5.72H47.4433V4.1C47.4433 3.23333 47.0766 2.8 46.3433 2.8C45.6099 2.8 45.2433 3.23333 45.2433 4.1V11.92C45.2433 12.7733 45.6099 13.2 46.3433 13.2C47.0766 13.2 47.4433 12.7733 47.4433 11.92V9.78H49.5233V11.76C49.5233 12.8533 49.2433 13.7 48.6833 14.3C48.1366 14.9 47.3366 15.2 46.2833 15.2ZM50.8395 0.999999H53.0395V6.9L55.8395 0.999999H58.0395L55.4195 6.14L58.0795 15H55.7795L53.9195 8.76L53.0395 10.54V15H50.8395V0.999999ZM59.1208 0.999999H65.1208V3H61.3208V6.7H64.3408V8.7H61.3208V13H65.1208V15H59.1208V0.999999ZM66.3864 0.999999H69.6464C70.7797 0.999999 71.6064 1.26667 72.1264 1.8C72.6464 2.32 72.9064 3.12667 72.9064 4.22V5.08C72.9064 6.53333 72.4264 7.45333 71.4664 7.84V7.88C71.9997 8.04 72.3731 8.36667 72.5864 8.86C72.8131 9.35333 72.9264 10.0133 72.9264 10.84V13.3C72.9264 13.7 72.9397 14.0267 72.9664 14.28C72.9931 14.52 73.0597 14.76 73.1664 15H70.9264C70.8464 14.7733 70.7931 14.56 70.7664 14.36C70.7397 14.16 70.7264 13.8 70.7264 13.28V10.72C70.7264 10.08 70.6197 9.63333 70.4064 9.38C70.2064 9.12667 69.8531 9 69.3464 9H68.5864V15H66.3864V0.999999ZM69.3864 7C69.8264 7 70.1531 6.88667 70.3664 6.66C70.5931 6.43333 70.7064 6.05333 70.7064 5.52V4.44C70.7064 3.93333 70.6131 3.56667 70.4264 3.34C70.2531 3.11333 69.9731 3 69.5864 3H68.5864V7H69.3864Z" fill="white"/>
<path fill-rule="evenodd" clip-rule="evenodd" d="M1.7011 17.7435C3.26949 17.9877 7.39131 17.9999 18.5805 18.0243C36.0528 18.0609 49.9197 18.3295 53.7738 18.7202C54.0798 18.7568 29.588 19.0254 27.0728 18.83C23.1518 18.5126 4.42665 18.7812 0.658677 19.1475C-0.412422 19.2451 -0.0107555 19.587 0.687372 19.6602C1.77759 19.7823 4.70401 19.7701 12.7277 19.7457C18.3701 19.7335 63.2606 20.0142 68.1666 20.5148C70.9209 20.7956 72.5945 21.052 73.3596 20.9909C74.0003 20.9421 74.0099 20.7956 73.4552 20.3927C73.0822 20.1241 73.503 19.9654 73.7708 19.8922C74.182 19.7701 74.0099 19.355 73.4935 19.0254C72.7953 18.5737 71.5903 18.5859 72.1641 19.0376C72.2885 19.1352 72.3172 19.3794 71.8772 19.3306C70.5957 19.1841 61.5392 18.183 59.0814 18.0121C32.8395 16.1564 7.22872 17.5115 1.80628 17.0598C-0.115957 16.8889 0.763887 17.597 1.7011 17.7435Z" fill="#49B960"/>
</svg>
